<svg xmlns="http://www.w3.org/2000/svg" preserveAspectRatio="none" viewBox="0 0 192 192">
    <path class="bg" fill="#EAEBEC" d="M0 80c0-28.003 0-42.004 5.45-52.7A50 50 0 0 1 27.3 5.45C37.996 0 51.998 0 80 0h32c28.003 0 42.004 0 52.7 5.45a49.995 49.995 0 0 1 21.85 21.85C192 37.996 192 51.998 192 80v32c0 28.003 0 42.004-5.45 52.7a49.99 49.99 0 0 1-21.85 21.85C154.004 192 140.003 192 112 192H80c-28.003 0-42.004 0-52.7-5.45A49.995 49.995 0 0 1 5.45 164.7C0 154.004 0 140.003 0 112V80Z"/>
    <path class="glyph" fill="#242526" d="M29 116c0-1.845.495-3.383 1.485-4.613 1.016-1.258 2.389-2.117 4.132-2.517 2.644-.606 3.76-1.663 4.883-3.145 1.123-1.51 1.5-3.844 1.5-7.004v-8.723c0-6.626 2.377-11.45 5.4-14.469C49.45 72.51 53 71 57.377 71c-.056 0 2.661.154 3.65.461 1.365.42 2.368 1.077 3.01 1.971.642.867.963 1.888.963 3.062 0 2.432-1.057 3.984-3.17 4.655a6.925 6.925 0 0 1-.883.21c-.294.056-.615.112-.963.168-2.942.251-4.307 1.146-5.484 2.684-1.177 1.51-1.5 3.97-1.5 7.38v11.198c0 3.691-.28 6.647-2.4 8.849-2.106 2.188-4.047 3.481-7.659 3.901-.294.056-.441.209-.441.461.027.252.174.391.441.419 3.611.42 5.539 1.741 7.659 3.943 2.106 2.187 2.4 5.13 2.4 8.849v11.239c0 3.411.323 5.872 1.5 7.381 1.177 1.51 2.542 2.405 5.484 2.684a7.646 7.646 0 0 1 1.646.336c2.246.615 3.37 2.167 3.37 4.655 0 1.202-.348 2.251-1.043 3.145-.669.923-1.752 1.58-3.25 1.972-.963.251-1.993.377-3.09.377-4.617 0-8.14-1.51-11.217-4.529-3.05-2.992-5.4-7.801-5.4-14.427v-8.807c0-3.132-.377-5.452-1.5-6.962-1.097-1.51-2.213-2.495-4.883-3.104-1.743-.397-3.116-1.244-4.132-2.474C29.495 119.439 29 117.873 29 116ZM71 116c0-1.845.495-3.383 1.485-4.613 1.016-1.258 2.389-2.117 4.132-2.517 2.644-.606 3.76-1.663 4.883-3.145 1.124-1.51 1.5-3.844 1.5-7.004v-8.723c0-6.626 2.377-11.45 5.4-14.469C91.45 72.51 95 71 99.376 71c-.055 0 2.662.154 3.652.461 1.364.42 2.367 1.077 3.009 1.971.642.867.963 1.888.963 3.062 0 2.432-1.057 3.984-3.17 4.655a6.934 6.934 0 0 1-.882.21c-.295.056-.616.112-.963.168-2.943.251-4.308 1.146-5.485 2.684-1.177 1.51-1.5 3.97-1.5 7.38v11.198c0 3.691-.28 6.647-2.4 8.849-2.106 2.188-4.047 3.481-7.659 3.901-.294.056-.441.209-.441.461.027.252.174.391.441.419 3.611.42 5.539 1.741 7.659 3.943 2.106 2.187 2.4 5.13 2.4 8.849v11.239c0 3.411.323 5.872 1.5 7.381 1.177 1.51 2.542 2.405 5.485 2.684.294.028.575.07.842.126.268.056.535.126.803.21 2.247.615 3.37 2.167 3.37 4.655 0 1.202-.348 2.251-1.043 3.145-.669.923-1.752 1.58-3.25 1.972-.963.251-1.993.377-3.09.377-4.617 0-8.14-1.51-11.217-4.529-3.05-2.992-5.4-7.801-5.4-14.427v-8.807c0-3.132-.376-5.452-1.5-6.962-1.097-1.51-2.213-2.495-4.883-3.104-1.743-.397-3.116-1.244-4.132-2.474C71.495 119.439 71 117.873 71 116Z"/>
</svg>
