<svg xmlns="http://www.w3.org/2000/svg" viewBox="0 0 64 64">
    <style>
        @media (prefers-color-scheme: dark) {
            .glyph {fill: #EAEBEC;}
        }
    </style>
    <path class="glyph" fill="#242526" d="M4 32c0-1.23.33-2.255.99-3.076.677-.838 1.593-1.41 2.755-1.677 1.762-.404 2.506-1.11 3.255-2.097.749-1.006 1-2.563 1-4.67v-5.815c0-4.417 1.585-7.632 3.6-9.645C17.633 3.007 20 2 22.918 2c-.037 0 1.774.103 2.434.308.91.28 1.578.717 2.006 1.314.428.577.642 1.258.642 2.04 0 1.622-.704 2.657-2.113 3.104a4.622 4.622 0 0 1-.589.14c-.196.037-.41.074-.642.112-1.961.167-2.871.764-3.656 1.79-.785 1.006-1 2.646-1 4.92v7.465c0 2.46-.187 4.431-1.6 5.9-1.404 1.458-2.698 2.32-5.106 2.6-.196.037-.294.14-.294.307.018.168.116.261.294.28 2.408.28 3.693 1.16 5.106 2.628 1.404 1.458 1.6 3.42 1.6 5.9V48.3c0 2.274.215 3.914 1 4.92.785 1.007 1.695 1.604 3.656 1.79a5.092 5.092 0 0 1 1.097.224c1.498.41 2.247 1.444 2.247 3.103 0 .802-.232 1.5-.695 2.097-.446.615-1.168 1.053-2.167 1.314a8.123 8.123 0 0 1-2.06.252C20 62 17.651 60.993 15.6 58.98c-2.033-1.994-3.6-5.2-3.6-9.617V43.49c0-2.087-.251-3.635-1-4.641-.731-1.007-1.475-1.663-3.255-2.069-1.163-.265-2.078-.83-2.755-1.65C4.33 34.293 4 33.25 4 32ZM32 32c0-1.23.33-2.255.99-3.076.677-.838 1.593-1.41 2.755-1.677 1.762-.404 2.506-1.11 3.255-2.097.749-1.006 1-2.563 1-4.67v-5.815c0-4.417 1.585-7.632 3.6-9.645C45.633 3.007 48 2 50.918 2c-.037 0 1.774.103 2.434.308.91.28 1.578.717 2.006 1.314.428.577.642 1.258.642 2.04 0 1.622-.704 2.657-2.113 3.104a4.622 4.622 0 0 1-.589.14c-.196.037-.41.074-.642.112-1.961.167-2.871.764-3.656 1.79-.785 1.006-1 2.646-1 4.92v7.465c0 2.46-.187 4.431-1.6 5.9-1.404 1.458-2.698 2.32-5.106 2.6-.196.037-.294.14-.294.307.018.168.116.261.294.28 2.408.28 3.693 1.16 5.106 2.628 1.404 1.458 1.6 3.42 1.6 5.9V48.3c0 2.274.215 3.914 1 4.92.785 1.007 1.695 1.604 3.656 1.79a5.092 5.092 0 0 1 1.097.224c1.498.41 2.247 1.444 2.247 3.103 0 .802-.232 1.5-.696 2.097-.445.615-1.168 1.053-2.166 1.314a8.123 8.123 0 0 1-2.06.252C48 62 45.651 60.993 43.6 58.98c-2.033-1.994-3.6-5.2-3.6-9.617V43.49c0-2.087-.251-3.635-1-4.641-.731-1.007-1.475-1.663-3.255-2.069-1.163-.265-2.078-.83-2.755-1.65C32.33 34.293 32 33.25 32 32Z"/>
</svg>
