<svg xmlns="http://www.w3.org/2000/svg" viewBox="0 0 192 192">
    <style>
        @media (prefers-color-scheme: dark) {
            .bg {fill: #EAEBEC;}
            .glyph {fill: #242526;}
        }
    </style>
    <path class="bg" fill="#242526" d="M0 0h192v192H0z"/>
    <path class="glyph" fill="#EAEBEC" d="M40 96c0-2.46.66-4.51 1.98-6.151 1.355-1.678 3.185-2.822 5.51-3.355 3.525-.809 5.012-2.218 6.51-4.194 1.498-2.013 2-5.126 2-9.338V61.33c0-8.835 3.17-15.266 7.2-19.292C67.266 38.013 72 36 77.835 36c-.074 0 3.55.205 4.869.615 1.819.56 3.156 1.435 4.012 2.628C87.572 40.4 88 41.76 88 43.325c0 3.243-1.409 5.313-4.226 6.207a9.236 9.236 0 0 1-1.177.28c-.393.074-.82.149-1.284.223-3.924.336-5.744 1.529-7.313 3.58-1.57 2.012-2 5.293-2 9.84v14.93c0 4.922-.373 8.864-3.2 11.8-2.808 2.916-5.397 4.64-10.211 5.2-.393.075-.589.28-.589.615.036.335.232.522.589.56 4.814.558 7.384 2.32 10.211 5.255 2.808 2.917 3.2 6.841 3.2 11.799V128.6c0 4.548.43 7.829 2 9.842 1.57 2.013 3.39 3.206 7.313 3.579a10.284 10.284 0 0 1 2.193.447c2.996.82 4.494 2.889 4.494 6.207 0 1.603-.464 3.001-1.391 4.194-.892 1.23-2.336 2.106-4.333 2.628-1.284.335-2.657.503-4.12.503-6.156 0-10.855-2.013-14.956-6.039-4.066-3.989-7.2-10.401-7.2-19.236v-11.743c0-4.175-.502-7.269-2-9.282-1.462-2.013-2.95-3.326-6.51-4.138-2.325-.53-4.155-1.659-5.51-3.299C40.66 100.585 40 98.498 40 96ZM96 96c0-2.46.66-4.51 1.98-6.151 1.355-1.678 3.185-2.822 5.51-3.355 3.525-.809 5.012-2.218 6.51-4.194 1.498-2.013 2-5.126 2-9.338V61.33c0-8.835 3.17-15.266 7.2-19.292C123.266 38.013 128 36 133.835 36c-.074 0 3.549.205 4.869.615 1.819.56 3.156 1.435 4.012 2.628.856 1.156 1.284 2.517 1.284 4.082 0 3.243-1.409 5.313-4.226 6.207a9.254 9.254 0 0 1-1.177.28c-.393.074-.821.149-1.284.223-3.923.336-5.744 1.529-7.313 3.58-1.569 2.012-2 5.293-2 9.84v14.93c0 4.922-.373 8.864-3.2 11.8-2.808 2.916-5.397 4.64-10.212 5.2-.392.075-.588.28-.588.615.036.335.232.522.588.56 4.815.558 7.385 2.32 10.212 5.255 2.808 2.917 3.2 6.841 3.2 11.799V128.6c0 4.548.431 7.829 2 9.842 1.569 2.013 3.39 3.206 7.313 3.579a10.26 10.26 0 0 1 2.193.447c2.996.82 4.494 2.889 4.494 6.207 0 1.603-.464 3.001-1.391 4.194-.892 1.23-2.336 2.106-4.333 2.628-1.284.335-2.657.503-4.12.503-6.156 0-10.855-2.013-14.956-6.039-4.066-3.989-7.2-10.401-7.2-19.236v-11.743c0-4.175-.502-7.269-2-9.282-1.462-2.013-2.95-3.326-6.51-4.138-2.325-.53-4.155-1.659-5.51-3.299C96.66 100.585 96 98.498 96 96Z"/>
</svg>
